<svg width="223" height="98" viewBox="0 0 223 98" fill="none" xmlns="http://www.w3.org/2000/svg">
<g clip-path="url(#clip0)">
<path fill-rule="evenodd" clip-rule="evenodd" d="M26.76 26.3919C3.92926 18.8236 0 28.8687 0 28.8687C11.4176 28.8687 22.8352 43.4484 22.8352 43.4484C38.0572 62.3624 49.4703 62.3624 49.4703 62.3624C52.8733 62.3624 55.8749 61.6497 58.4929 60.7053C57.0657 56.3309 62.44 51.667 62.44 46.7937C62.44 41.1187 73.7283 40.3124 75.82 34.3878C60.6248 36.3567 26.76 26.3919 26.76 26.3919Z" fill="#46A046"/>
<path fill-rule="evenodd" clip-rule="evenodd" d="M62.44 49C63.7334 47.2226 66.115 41.2357 66.115 39.3603C66.115 35.3423 78.0678 31.0615 80.28 26.8653C57.2575 28.4512 28.205 23.5957 28.205 23.5957C0.370181 17.6311 0 28.8699 0 28.8699C13.1927 25.6136 27.0187 32.9859 27.0187 32.9859C53.9125 47.2003 60.9727 49.1291 62.44 49Z" fill="#8CBE3C"/>
<path fill-rule="evenodd" clip-rule="evenodd" d="M147.18 34.3856C149.272 40.3146 160.56 41.1208 160.56 46.7959C160.56 51.6648 165.934 56.3331 164.507 60.703C167.125 61.6518 170.127 62.3646 173.53 62.3646C173.53 62.3646 184.943 62.3646 200.165 43.4461C200.165 43.4461 211.582 28.8708 223 28.8708C223 28.8708 219.071 18.8258 196.24 26.3897C196.24 26.3897 162.375 36.3589 147.18 34.3856Z" fill="#46A046"/>
<path fill-rule="evenodd" clip-rule="evenodd" d="M160.56 49C159.267 47.2226 156.885 41.2357 156.885 39.3603C156.885 35.3423 144.932 31.0615 142.72 26.8653C165.743 28.4512 194.795 23.5957 194.795 23.5957C222.63 17.6311 223 28.8699 223 28.8699C209.807 25.6136 195.981 32.9859 195.981 32.9859C169.088 47.2003 162.027 49.1291 160.56 49Z" fill="#8CBE3C"/>
<path fill-rule="evenodd" clip-rule="evenodd" d="M111.5 0C80.5476 0 63.8895 38.6165 57.2842 55.664C55.9373 59.143 55.6563 62.9249 56.3789 66.4796C57.1549 70.3239 59.483 73.598 62.547 75.7273L98.12 98H124.88L160.556 75.656C163.138 73.8653 165.27 71.2816 166.211 68.1323C167.406 64.1143 167.272 59.6865 165.716 55.664C159.111 38.6165 142.452 0 111.5 0Z" fill="#8CBE3C"/>
<path fill-rule="evenodd" clip-rule="evenodd" d="M115.96 62.3637H107.04C105.809 62.3637 104.81 61.3659 104.81 60.1365C104.81 58.907 105.809 57.9092 107.04 57.9092H115.96C117.191 57.9092 118.19 58.907 118.19 60.1365C118.19 61.3659 117.191 62.3637 115.96 62.3637Z" fill="#46A046"/>
<path opacity="0.5" fill-rule="evenodd" clip-rule="evenodd" d="M109.27 0.173239V13.3631C109.27 14.5926 110.269 15.5904 111.5 15.5904C112.731 15.5904 113.73 14.5926 113.73 13.3631V0.173239C112.985 0.128694 112.263 -0.000488281 111.5 -0.000488281C110.737 -0.000488281 110.015 0.128694 109.27 0.173239ZM93.66 17.8177C93.66 19.0471 94.659 20.045 95.89 20.045C97.121 20.045 98.12 19.0471 98.12 17.8177V2.66333C96.5902 3.26915 95.1006 3.9596 93.66 4.74806V17.8177ZM124.88 2.66333V17.8177C124.88 19.0471 125.879 20.045 127.11 20.045C128.341 20.045 129.34 19.0471 129.34 17.8177V4.74806C127.899 3.9596 126.41 3.26915 124.88 2.66333Z" fill="#46A046"/>
<path opacity="0.5" fill-rule="evenodd" clip-rule="evenodd" d="M147.18 50.1136C146.565 50.1136 146.065 49.6147 146.065 48.9999C146.065 39.7879 138.559 32.2954 129.34 32.2954C120.121 32.2954 112.615 39.7879 112.615 48.9999H110.385C110.385 39.7879 102.879 32.2954 93.66 32.2954C84.4412 32.2954 76.935 39.7879 76.935 48.9999C76.935 49.6147 76.4355 50.1136 75.82 50.1136C75.2045 50.1136 74.705 49.6147 74.705 48.9999C74.705 38.5629 83.2058 30.0681 93.66 30.0681C101.866 30.0681 108.864 35.2978 111.5 42.5988C114.136 35.2978 121.134 30.0681 129.34 30.0681C139.794 30.0681 148.295 38.5629 148.295 48.9999C148.295 49.6147 147.795 50.1136 147.18 50.1136Z" fill="#46A046"/>
<path fill-rule="evenodd" clip-rule="evenodd" d="M98.12 53.4545C98.12 55.9135 96.1219 57.9091 93.66 57.9091C91.1981 57.9091 89.2 55.9135 89.2 53.4545C89.2 50.9956 91.1981 49 93.66 49C96.1219 49 98.12 50.9956 98.12 53.4545Z" fill="white"/>
<path fill-rule="evenodd" clip-rule="evenodd" d="M133.8 53.4545C133.8 55.9135 131.802 57.9091 129.34 57.9091C126.878 57.9091 124.88 55.9135 124.88 53.4545C124.88 50.9956 126.878 49 129.34 49C131.802 49 133.8 50.9956 133.8 53.4545Z" fill="white"/>
<path fill-rule="evenodd" clip-rule="evenodd" d="M98.12 80.1818C97.509 80.1818 97.005 79.6784 97.005 79.0682V72.3863C97.005 71.7761 97.509 71.2727 98.12 71.2727C98.731 71.2727 99.235 71.7761 99.235 72.3863V79.0682C99.235 79.6784 98.731 80.1818 98.12 80.1818Z" fill="#46A046"/>
<path fill-rule="evenodd" clip-rule="evenodd" d="M111.5 82.4091C110.889 82.4091 110.385 81.9057 110.385 81.2955V74.6136C110.385 74.0034 110.889 73.5 111.5 73.5C112.111 73.5 112.615 74.0034 112.615 74.6136V81.2955C112.615 81.9057 112.111 82.4091 111.5 82.4091Z" fill="#46A046"/>
<path fill-rule="evenodd" clip-rule="evenodd" d="M124.88 82.4091C124.269 82.4091 123.765 81.9057 123.765 81.2955V74.6136C123.765 74.0034 124.269 73.5 124.88 73.5C125.491 73.5 125.995 74.0034 125.995 74.6136V81.2955C125.995 81.9057 125.491 82.4091 124.88 82.4091Z" fill="#46A046"/>
<path fill-rule="evenodd" clip-rule="evenodd" d="M107.963 80.1818L103.503 75.7273H91.43C90.645 77.1528 90.6094 78.792 91.43 80.1818H101.657L106.117 84.6364H131.57C131.57 84.6364 131.436 80.4135 131.57 80.1818H107.963Z" fill="#323232"/>
<path fill-rule="evenodd" clip-rule="evenodd" d="M93.66 77.9563C93.66 79.1857 92.661 80.1835 91.43 80.1835C90.199 80.1835 89.2 79.1857 89.2 77.9563C89.2 76.7268 90.199 75.729 91.43 75.729C92.661 75.729 93.66 76.7268 93.66 77.9563Z" fill="#323232"/>
<path fill-rule="evenodd" clip-rule="evenodd" d="M133.8 82.4109C133.8 83.6403 132.801 84.6381 131.57 84.6381C130.339 84.6381 129.34 83.6403 129.34 82.4109C129.34 81.1814 130.339 80.1836 131.57 80.1836C132.801 80.1836 133.8 81.1814 133.8 82.4109Z" fill="#323232"/>
</g>
<defs>
<clipPath id="clip0">
<rect width="223" height="98" fill="white"/>
</clipPath>
</defs>
</svg>
