<svg width="216" height="204" viewBox="0 0 216 204" fill="none" xmlns="http://www.w3.org/2000/svg">
<path fill-rule="evenodd" clip-rule="evenodd" d="M48 204H168V126H48V204Z" fill="#503C1D"/>
<path fill-rule="evenodd" clip-rule="evenodd" d="M108 18C74.862 18 48 41.346 48 70.14V156L90 186H126L168 156V70.14C168 41.346 141.138 18 108 18Z" fill="#F0B496"/>
<path fill-rule="evenodd" clip-rule="evenodd" d="M48 120C41.4 120 36 114.6 36 108V90C36 83.4 41.4 78 48 78C54.6 78 60 83.4 60 90V108C60 114.6 54.6 120 48 120Z" fill="#F0B496"/>
<path fill-rule="evenodd" clip-rule="evenodd" d="M168 120C161.4 120 156 114.6 156 108V90C156 83.4 161.4 78 168 78C174.6 78 180 83.4 180 90V108C180 114.6 174.6 120 168 120Z" fill="#F0B496"/>
<path fill-rule="evenodd" clip-rule="evenodd" d="M84 89.706C80.682 89.706 78 92.388 78 95.706C78 99.024 80.682 101.706 84 101.706C87.318 101.706 90 99.024 90 95.706C90 92.388 87.318 89.706 84 89.706Z" fill="#323232"/>
<path fill-rule="evenodd" clip-rule="evenodd" d="M132 89.706C128.682 89.706 126 92.388 126 95.706C126 99.024 128.682 101.706 132 101.706C135.318 101.706 138 99.024 138 95.706C138 92.388 135.318 89.706 132 89.706Z" fill="#323232"/>
<path fill-rule="evenodd" clip-rule="evenodd" d="M101.999 117V92.712C101.999 91.056 103.343 89.712 104.999 89.712C106.655 89.712 107.999 91.056 107.999 92.712V117C107.999 118.656 106.655 120 104.999 120C103.343 120 101.999 118.656 101.999 117Z" fill="#E99977"/>
<path fill-rule="evenodd" clip-rule="evenodd" d="M132 168H84L90 138H126L132 168ZM168 66L156 156H150L132 132H84L66 156H60L48 66L42.828 148.71C42.312 156.978 46.098 164.928 52.836 169.74L77.742 187.53C81.81 190.44 86.688 192 91.692 192H124.308C129.312 192 134.19 190.44 138.258 187.53L163.164 169.74C169.902 164.928 173.688 156.978 173.172 148.71L168 66Z" fill="#ECECEC"/>
<mask id="mask0" mask-type="alpha" maskUnits="userSpaceOnUse" x="0" y="0" width="216" height="204">
<path d="M0 0H216V204H0" fill="white"/>
</mask>
<g mask="url(#mask0)">
<path fill-rule="evenodd" clip-rule="evenodd" d="M6.45357 204H68.9736C48.3936 173.922 49.4616 120.222 49.4616 119.61C49.4616 86.58 75.6696 59.802 107.998 59.802C140.332 59.802 166.54 86.58 166.54 119.61C166.54 120.222 167.602 173.922 147.028 204H209.548C215.092 204 217.954 197.274 214.498 192.702C183.262 151.398 186.052 82.308 186.052 82.308C186.052 38.544 149.5 0 107.998 0C66.5016 0 29.9436 38.544 29.9436 82.308C29.9436 82.308 32.7336 151.398 1.50357 192.702C-1.95243 197.274 0.909575 204 6.45357 204Z" fill="#8C5A3C"/>
</g>
</svg>
