<svg width="145" height="181" viewBox="0 0 145 181" fill="none" xmlns="http://www.w3.org/2000/svg">
<path fill-rule="evenodd" clip-rule="evenodd" d="M12.165 60.5V131.3C12.165 139.13 15.987 146.468 22.401 150.962L24.165 152.198L58.401 176.162C66.663 181.946 77.667 181.946 85.929 176.162L120.165 152.198L121.929 150.962C128.343 146.468 132.165 139.13 132.165 131.3V90.5V60.5C132.165 27.362 12.165 27.362 12.165 60.5Z" fill="#323232"/>
<path fill-rule="evenodd" clip-rule="evenodd" d="M120.165 42.4994V34.0154L141.381 21.2834L128.649 42.4994H120.165Z" fill="#BEBEBE"/>
<path fill-rule="evenodd" clip-rule="evenodd" d="M24.1651 42.4994V34.0154L2.9491 21.2834L15.6811 42.4994H24.1651Z" fill="#BEBEBE"/>
<path fill-rule="evenodd" clip-rule="evenodd" d="M12.165 114.5C5.56504 114.5 0.165039 109.1 0.165039 102.5V84.5C0.165039 77.9 5.56504 72.5 12.165 72.5C18.765 72.5 24.165 77.9 24.165 84.5V102.5C24.165 109.1 18.765 114.5 12.165 114.5Z" fill="#323232"/>
<path fill-rule="evenodd" clip-rule="evenodd" d="M132.165 114.5C125.565 114.5 120.165 109.1 120.165 102.5V84.5C120.165 77.9 125.565 72.5 132.165 72.5C138.765 72.5 144.165 77.9 144.165 84.5V102.5C144.165 109.1 138.765 114.5 132.165 114.5Z" fill="#323232"/>
<path fill-rule="evenodd" clip-rule="evenodd" d="M72.165 0.5C39.027 0.5 12.165 27.362 12.165 60.5L18.165 72.5L12.165 96.5L42.165 150.5L60.165 132.5L66.165 150.5H78.165L84.165 132.5L102.165 150.5L132.165 90.5L126.165 72.494L132.165 60.5C132.165 27.362 105.303 0.5 72.165 0.5Z" fill="#921816"/>
<path fill-rule="evenodd" clip-rule="evenodd" d="M78.165 90.4994L102.165 72.4994L120.165 84.4994L102.165 108.499L78.165 90.4994Z" fill="#323232"/>
<path fill-rule="evenodd" clip-rule="evenodd" d="M96.165 84.5C92.847 84.5 90.165 87.182 90.165 90.5C90.165 93.818 92.847 96.5 96.165 96.5C99.483 96.5 102.165 93.818 102.165 90.5C102.165 87.182 99.483 84.5 96.165 84.5Z" fill="#F1C40F"/>
<path fill-rule="evenodd" clip-rule="evenodd" d="M66.165 90.4994L42.165 72.4994L24.165 84.4994L36.165 108.499L66.165 90.4994Z" fill="#323232"/>
<path fill-rule="evenodd" clip-rule="evenodd" d="M48.165 84.5C44.847 84.5 42.165 87.182 42.165 90.5C42.165 93.818 44.847 96.5 48.165 96.5C51.483 96.5 54.165 93.818 54.165 90.5C54.165 87.182 51.483 84.5 48.165 84.5Z" fill="#F1C40F"/>
<path fill-rule="evenodd" clip-rule="evenodd" d="M84.165 156.499H60.165L56.499 174.829L58.401 176.161C66.663 181.945 77.667 181.945 85.929 176.161L87.831 174.829L84.165 156.499Z" fill="#921816"/>
<path fill-rule="evenodd" clip-rule="evenodd" d="M72.165 18.4994L60.165 36.4994L72.165 90.4994L84.165 36.4994L72.165 18.4994Z" fill="#323232"/>
<path fill-rule="evenodd" clip-rule="evenodd" d="M42.165 84.4994L54.165 66.4994L48.165 48.4994L30.165 66.4994V36.4994L36.165 54.4994L48.165 42.4994L60.165 66.4994L42.165 84.4994Z" fill="#323232"/>
<path fill-rule="evenodd" clip-rule="evenodd" d="M30.165 54.4994L21.681 36.4994L30.165 28.0154L38.649 36.4994L30.165 54.4994Z" fill="#323232"/>
<path fill-rule="evenodd" clip-rule="evenodd" d="M72.165 42.4994L78.165 36.4994L72.165 12.4994L66.165 36.4994L72.165 42.4994Z" fill="#BEBEBE"/>
<path fill-rule="evenodd" clip-rule="evenodd" d="M30.165 42.4994L36.165 36.4994L30.165 12.4994L24.165 36.4994L30.165 42.4994Z" fill="#BEBEBE"/>
<path fill-rule="evenodd" clip-rule="evenodd" d="M102.165 84.4994L90.165 66.4994L96.165 48.4994L114.165 66.4994V36.4994L108.165 54.4994L96.165 42.4994L84.165 66.4994L102.165 84.4994Z" fill="#323232"/>
<path fill-rule="evenodd" clip-rule="evenodd" d="M114.165 54.4994L122.649 36.4994L114.165 28.0154L105.681 36.4994L114.165 54.4994Z" fill="#323232"/>
<path fill-rule="evenodd" clip-rule="evenodd" d="M114.165 42.4994L108.165 36.4994L114.165 12.4994L120.165 36.4994L114.165 42.4994Z" fill="#BEBEBE"/>
<path fill-rule="evenodd" clip-rule="evenodd" d="M36.165 90.4994L18.165 120.499L36.165 132.499L54.165 108.499L36.165 126.499L24.165 120.499L36.165 90.4994Z" fill="#323232"/>
<path fill-rule="evenodd" clip-rule="evenodd" d="M108.165 90.4994L126.165 120.499L108.165 132.499L90.165 108.499L108.165 126.499L120.165 120.499L108.165 90.4994Z" fill="#323232"/>
<path fill-rule="evenodd" clip-rule="evenodd" d="M72.165 126.499L84.165 120.499L72.165 132.499L60.165 120.499L72.165 126.499Z" fill="#323232"/>
<path fill-rule="evenodd" clip-rule="evenodd" d="M69.165 156.499L60.165 168.499L66.165 174.499V168.499L72.165 162.499L78.165 168.499V174.499L84.165 168.499L75.165 156.499H69.165Z" fill="#323232"/>
</svg>
