<svg width="178" height="193" viewBox="0 0 178 193" fill="none" xmlns="http://www.w3.org/2000/svg">
<path fill-rule="evenodd" clip-rule="evenodd" d="M160.615 129.842H177.229L155.077 84.3316V79.2736C155.077 45.7576 125.323 24.0676 88.6152 24.0676C51.9072 24.0676 22.1532 45.7576 22.1532 79.2736V84.3316L0.0012207 129.842H16.6152L0.0012207 150.068H22.1532H155.077H177.229L160.615 129.842Z" fill="#BE9664"/>
<path fill-rule="evenodd" clip-rule="evenodd" d="M148.615 120.069C142.015 120.069 136.615 114.669 136.615 108.069V90.0694C136.615 83.4694 142.015 78.0694 148.615 78.0694C155.215 78.0694 160.615 83.4694 160.615 90.0694V108.069C160.615 114.669 155.215 120.069 148.615 120.069Z" fill="#F0B496"/>
<path fill-rule="evenodd" clip-rule="evenodd" d="M28.6152 120.069C22.0152 120.069 16.6152 114.669 16.6152 108.069V90.0694C16.6152 83.4694 22.0152 78.0694 28.6152 78.0694C35.2152 78.0694 40.6152 83.4694 40.6152 90.0694V108.069C40.6152 114.669 35.2152 120.069 28.6152 120.069Z" fill="#F0B496"/>
<path fill-rule="evenodd" clip-rule="evenodd" d="M88.6152 18.0695C55.4772 18.0695 28.6152 42.2495 28.6152 72.0695V84.0695V142.869C28.6152 150.699 32.4372 158.037 38.8512 162.531L40.6152 163.767L74.8512 187.731C83.1132 193.515 94.1172 193.515 102.379 187.731L136.615 163.767L138.379 162.531C144.793 158.037 148.615 150.699 148.615 142.869V102.069V72.0695C148.615 42.2495 121.753 18.0695 88.6152 18.0695Z" fill="#F0B496"/>
<path fill-rule="evenodd" clip-rule="evenodd" d="M64.6152 102.069C61.2972 102.069 58.6152 104.751 58.6152 108.069C58.6152 111.387 61.2972 114.069 64.6152 114.069C67.9332 114.069 70.6152 111.387 70.6152 108.069C70.6152 104.751 67.9332 102.069 64.6152 102.069Z" fill="#2980B9"/>
<path fill-rule="evenodd" clip-rule="evenodd" d="M112.615 102.069C109.297 102.069 106.615 104.751 106.615 108.069C106.615 111.387 109.297 114.069 112.615 114.069C115.933 114.069 118.615 111.387 118.615 108.069C118.615 104.751 115.933 102.069 112.615 102.069Z" fill="#2980B9"/>
<path fill-rule="evenodd" clip-rule="evenodd" d="M82.6152 134.864V105.068C82.6152 103.412 83.9592 102.068 85.6152 102.068C87.2712 102.068 88.6152 103.412 88.6152 105.068V134.864C88.6152 136.52 87.2712 137.864 85.6152 137.864C83.9592 137.864 82.6152 136.52 82.6152 134.864Z" fill="#E99977"/>
<path fill-rule="evenodd" clip-rule="evenodd" d="M150.329 89.0416H172.613L154.613 53.0416H166.613L152.177 36.5656L143.753 20.6536L105.701 0.067627L88.6134 9.11563L71.5314 0.067627L33.4794 20.6536L25.0554 36.5656L10.6134 53.0416H22.6134L4.6134 89.0416H26.9034L28.6134 101.042L35.9994 82.5796L59.0574 74.9296L75.8994 43.1176L61.5534 83.0416L85.8834 75.5536L94.6134 46.2316L94.4514 43.1596L94.6134 43.1176L118.175 74.9296L141.233 82.5796L148.613 101.042L150.329 89.0416Z" fill="#BE9664"/>
<path fill-rule="evenodd" clip-rule="evenodd" d="M91.6152 183.069C91.6152 184.725 90.2712 186.069 88.6152 186.069C86.9592 186.069 85.6152 184.725 85.6152 183.069C85.6152 181.413 86.9592 180.069 88.6152 180.069C90.2712 180.069 91.6152 181.413 91.6152 183.069Z" fill="#F0B496"/>
</svg>
