<svg width="300" height="130" viewBox="0 0 300 130" fill="none" xmlns="http://www.w3.org/2000/svg">
<path d="M128.082 103.645H118.937C118.615 103.645 118.384 103.281 118.384 102.934C118.384 102.811 123.25 87.1167 123.25 87.1167C123.423 86.5298 123.44 86.5126 123.506 86.5126H123.514C123.588 86.5126 123.597 86.5298 123.77 87.1167C123.77 87.1167 128.636 102.811 128.636 102.934C128.636 103.281 128.388 103.645 128.083 103.645H128.082ZM140.417 67.7369C140.371 67.5818 140.28 67.4442 140.154 67.3423C140.029 67.2405 139.875 67.1792 139.714 67.1666H106.132C105.972 67.1793 105.82 67.2397 105.695 67.3399C105.569 67.4401 105.477 67.5755 105.43 67.7287C105.43 67.7287 86.8665 129.032 86.8665 129.149C86.8665 129.454 87.1061 129.702 87.4201 129.702H109.618C109.706 129.665 109.784 129.608 109.844 129.534C109.905 129.461 109.946 129.374 109.965 129.28L112.551 121.017C112.591 120.914 112.66 120.826 112.749 120.763C112.839 120.699 112.945 120.664 113.055 120.661L133.535 120.645C133.757 120.661 133.956 120.818 134.039 121.017L136.682 129.28C136.724 129.471 136.856 129.644 137.029 129.71L158.872 129.702C159.177 129.702 159.434 129.47 159.434 129.165C159.434 129.057 140.417 67.7369 140.417 67.7369V67.7369ZM203.698 92.7665L190.058 92.7748C190.058 92.7748 189.695 92.6674 189.695 92.2541L189.687 85.3701C189.687 84.9568 190.051 84.8493 190.051 84.8493H202.558C204.012 84.8493 206.953 85.5767 206.953 88.9402C206.953 92.3037 203.698 92.7665 203.698 92.7665V92.7665ZM269.094 87.4365H300V67.164H260.263C256.546 67.164 251.316 69.0817 248.317 71.3045C245.319 73.5273 240.981 78.5935 240.981 85.5767C240.981 92.5599 245.22 97.9898 245.22 97.9898C247.392 100.684 252.861 106.295 252.861 106.295C252.985 106.428 253.06 106.601 253.06 106.8C253.06 107.221 252.721 107.559 252.299 107.559H221.691C217.965 107.543 217.709 106.064 217.709 105.849C217.709 105.469 218.172 105.229 218.172 105.229C219.568 104.56 222.418 102.336 222.418 102.336C228.465 97.6261 229.193 91.1636 229.193 87.701C229.193 84.2294 228.672 78.0893 222.468 72.7097C216.264 67.3294 208.407 67.1806 208.407 67.1806H164.729V129.345C164.729 129.542 164.911 129.699 165.109 129.699H189.423V112.262C189.423 111.957 189.893 112.262 189.893 112.262L202.558 124.989C207.06 129.542 214.504 129.699 214.504 129.699L262.386 129.691C270.557 129.691 275.101 125.245 276.348 124.006C277.587 122.757 281.726 118.105 281.726 110.395C281.726 102.692 278.207 98.7502 276.703 96.9407C275.365 95.3206 270.028 89.6676 268.912 88.4938C268.845 88.4389 268.791 88.3696 268.754 88.2911C268.717 88.2126 268.698 88.1267 268.698 88.0399C268.698 87.7665 268.855 87.5109 269.094 87.4358V87.4365ZM75.7703 129.698C75.9356 129.698 76.0513 129.582 76.1008 129.4C76.1008 129.4 94.9119 67.5926 94.9119 67.5341C94.9119 67.3688 94.8127 67.1876 94.6557 67.171H71.4661C71.3504 67.171 71.2761 67.262 71.2513 67.3859C71.2513 67.3942 66.4513 83.4594 66.4513 83.4677C66.4182 83.6 66.3521 83.6826 66.2364 83.6826C66.1208 83.6826 66.0216 83.5669 66.0051 83.4677L60.9826 67.3777C60.9661 67.2696 60.8835 67.171 60.7678 67.171L35.1578 67.1628C35.1206 67.173 35.0863 67.1918 35.0576 67.2176C35.0289 67.2434 35.0066 67.2756 34.9926 67.3116L30.49 83.4594C30.4653 83.5999 30.3909 83.6826 30.267 83.6826C30.2144 83.6816 30.1639 83.6619 30.1246 83.6271C30.0852 83.5923 30.0595 83.5446 30.0521 83.4925L25.2769 67.3611C25.2712 67.3119 25.2495 67.2658 25.2152 67.23C25.1809 67.1942 25.1358 67.1706 25.0869 67.1628H0.369279C0.271951 67.1641 0.179103 67.2039 0.110993 67.2735C0.0428832 67.343 0.00504031 67.4367 0.00572083 67.5341C0.00572083 67.5672 0.0139826 67.6333 0.0139826 67.6333L19.1059 129.4C19.1555 129.582 19.2712 129.698 19.4364 129.698L39.9661 129.706C40.0894 129.69 40.214 129.549 40.2464 129.4C40.2547 129.4 47.3924 106.418 47.3924 106.418C47.4337 106.277 47.4915 106.195 47.6072 106.195C47.7311 106.195 47.7979 106.294 47.8303 106.409L54.7945 129.5C54.8148 129.558 54.8528 129.608 54.9031 129.644C54.9535 129.68 55.0138 129.698 55.0754 129.698H75.7703ZM57.9114 0.00254309C54.1856 0.00254309 48.9648 1.91954 45.9661 4.14299C42.9661 6.36581 38.6301 11.432 38.6301 18.4152C38.6301 25.3984 42.8676 30.8283 42.8676 30.8283C45.0407 33.5223 50.5093 39.1747 50.5093 39.1747C50.6333 39.3069 50.7076 39.4805 50.7076 39.6706C50.7076 40.0922 50.3689 40.4393 49.9481 40.4393H0V62.5378H60.035C68.1972 62.5378 72.7487 58.0916 73.9964 56.8441C75.2358 55.6042 79.3665 50.9513 79.3665 43.2407C79.3665 35.5384 75.8555 31.555 74.3517 29.7455C73.0131 28.1254 67.6767 22.5061 66.5612 21.3406C66.4944 21.2833 66.4406 21.2124 66.4035 21.1325C66.3665 21.0527 66.347 20.9658 66.3464 20.8777C66.3464 20.605 66.5034 20.357 66.743 20.2743H95.6574V62.5378H117.889V20.3818H144.878V0.00254309H57.9114ZM251.81 25.6057L238.171 25.6139C238.171 25.6139 237.807 25.5065 237.807 25.0932L237.799 18.2092C237.799 17.7959 238.163 17.6885 238.163 17.6885H250.67C252.124 17.6885 255.065 18.4158 255.065 21.7793C255.065 25.1428 251.811 25.6057 251.811 25.6057H251.81ZM269.804 40.3986C266.085 40.3821 265.822 38.9032 265.822 38.6883C265.822 38.3081 266.284 38.0684 266.284 38.0684C267.68 37.3988 270.53 35.1754 270.53 35.1754C276.578 30.4652 277.305 24.0028 277.305 20.5401C277.305 17.0685 276.784 10.9284 270.58 5.54879C264.376 0.168491 256.519 0.00317856 256.519 0.00317856H212.841V62.183C212.841 62.3814 213.024 62.5391 213.222 62.5391H237.535V45.1088C237.535 44.7947 238.006 45.1088 238.006 45.1088L250.67 57.8277C255.172 62.3808 262.616 62.5378 262.616 62.5378H299.998V40.3999H269.804V40.3986ZM177.379 36.4782H168.234C167.895 36.4782 167.681 36.1145 167.681 35.7673C167.681 35.6351 172.546 19.9501 172.546 19.9501C172.72 19.3632 172.769 19.346 172.803 19.346H172.811C172.844 19.346 172.893 19.3632 173.067 19.9501C173.067 19.9501 177.932 35.6357 177.932 35.7673C177.932 36.1145 177.71 36.4782 177.379 36.4782V36.4782ZM189.688 0.553798C189.645 0.399184 189.553 0.262359 189.427 0.162891C189.301 0.0634234 189.147 0.00640814 188.986 0H155.404C155.074 0.0165313 154.793 0.239703 154.702 0.545532C154.702 0.545532 136.156 61.8658 136.156 61.9815C136.156 62.2873 136.403 62.5353 136.708 62.5353H158.907C159.089 62.4781 159.221 62.3038 159.262 62.1137L161.848 53.8417C161.89 53.7414 161.959 53.6553 162.049 53.5937C162.138 53.5321 162.244 53.4977 162.352 53.4946H182.823C182.933 53.502 183.038 53.539 183.128 53.6016C183.219 53.6641 183.29 53.75 183.336 53.85L185.98 62.1137C186.02 62.3045 186.153 62.4774 186.326 62.5435L208.169 62.5353C208.475 62.5353 208.722 62.3038 208.722 61.9898C208.722 61.8906 189.688 0.553798 189.688 0.553798" fill="black"/>
</svg>
