<svg width="216" height="195" viewBox="0 0 216 195" fill="none" xmlns="http://www.w3.org/2000/svg">
<g clip-path="url(#clip0)">
<path fill-rule="evenodd" clip-rule="evenodd" d="M204 177C205.944 175.494 210.702 174.024 212.496 172.428L180 95.25C180 95.25 151.146 9 115.548 9H100.452C64.854 9 36 95.25 36 95.25L3.50403 172.428C5.29803 174.024 10.056 175.494 12 177H204Z" fill="#323232"/>
<path fill-rule="evenodd" clip-rule="evenodd" d="M48 117L72 159L102 117H48Z" fill="#505050"/>
<path fill-rule="evenodd" clip-rule="evenodd" d="M144 159L168 117H114L144 159Z" fill="#505050"/>
<path fill-rule="evenodd" clip-rule="evenodd" d="M54 103.5C54 99.378 56.22 93.342 58.932 90.096C58.932 90.096 66.534 81 82.002 81C89.844 81 95.316 84.378 95.316 84.378C98.994 86.646 102 91.878 102 96V107.25C102 109.314 98.4 111 94.002 111H61.998C57.6 111 54 107.622 54 103.5Z" fill="black"/>
<path fill-rule="evenodd" clip-rule="evenodd" d="M154 111H122.002C117.598 111 113.998 109.314 113.998 107.25V96C113.998 91.872 117.01 86.646 120.682 84.378C120.682 84.378 126.154 81 134.002 81C149.464 81 157.066 90.096 157.066 90.096C159.778 93.342 161.998 99.378 161.998 103.5C161.998 107.628 158.398 111 154 111Z" fill="black"/>
<path fill-rule="evenodd" clip-rule="evenodd" d="M180 81V67.452C180 32.598 152.322 4.284 117.756 3.114C116.106 1.218 113.706 0 111 0H105C102.294 0 99.894 1.218 98.244 3.114C63.678 4.284 36 32.598 36 67.452V81L0 177H12L43.668 99.906C51.798 79.59 63.06 70.926 81.342 70.926C93.84 70.926 101.574 80.688 102 81H114C114.426 80.688 122.16 70.926 134.658 70.926C152.94 70.926 164.202 79.59 172.32 99.876L204 177H216L180 81Z" fill="black"/>
<path fill-rule="evenodd" clip-rule="evenodd" d="M53.919 63C52.371 63 51.111 61.746 51.111 60.192C51.111 36.99 69.987 18.114 93.195 18.114C94.743 18.114 95.997 19.368 95.997 20.922C95.997 22.47 94.743 23.724 93.195 23.724C73.083 23.724 56.727 40.086 56.727 60.192C56.727 61.746 55.467 63 53.919 63Z" fill="#1A1A1A"/>
<path fill-rule="evenodd" clip-rule="evenodd" d="M108 117C104.688 117 102 119.682 102 123V129H114V123C114 119.682 111.312 117 108 117ZM153 177C149.688 177 147 179.688 147 183C147 186.312 149.688 189 153 189C156.312 189 159 186.312 159 183C159 179.688 156.312 177 153 177ZM63 177C59.688 177 57 179.688 57 183C57 186.312 59.688 189 63 189C66.312 189 69 186.312 69 183C69 179.688 66.312 177 63 177Z" fill="white"/>
<path fill-rule="evenodd" clip-rule="evenodd" d="M158.745 172.531L167.997 117.001L143.997 159.001L119.997 125.401V123.001C119.997 116.383 114.621 111.001 107.997 111.001C101.379 111.001 95.9969 116.383 95.9969 123.001V125.401L71.9969 159.001L47.9969 117.001L57.2549 172.531C53.5469 174.577 50.9969 178.477 50.9969 183.001C50.9969 189.619 56.3789 195.001 62.9969 195.001C67.4249 195.001 71.2469 192.571 73.3289 189.001H142.671C144.747 192.571 148.575 195.001 152.997 195.001C159.621 195.001 164.997 189.619 164.997 183.001C164.997 178.477 162.453 174.577 158.745 172.531Z" fill="black"/>
<path fill-rule="evenodd" clip-rule="evenodd" d="M84 177H96V145.458L84 161.916V177Z" fill="#323232"/>
<path fill-rule="evenodd" clip-rule="evenodd" d="M120 145.457V176.999H132V161.915L120 145.457Z" fill="#323232"/>
<path fill-rule="evenodd" clip-rule="evenodd" d="M102 177H114V141H102V177Z" fill="#323232"/>
<path fill-rule="evenodd" clip-rule="evenodd" d="M108 117C104.688 117 102 119.682 102 123V129H114V123C114 119.682 111.312 117 108 117ZM153 177C149.688 177 147 179.688 147 183C147 186.312 149.688 189 153 189C156.312 189 159 186.312 159 183C159 179.688 156.312 177 153 177ZM63 177C59.688 177 57 179.688 57 183C57 186.312 59.688 189 63 189C66.312 189 69 186.312 69 183C69 179.688 66.312 177 63 177Z" fill="white"/>
</g>
<defs>
<clipPath id="clip0">
<rect width="216" height="195" fill="white"/>
</clipPath>
</defs>
</svg>
