<svg width="300" height="132" viewBox="0 0 300 132" fill="none" xmlns="http://www.w3.org/2000/svg">
<g clip-path="url(#clip0)">
<path fill-rule="evenodd" clip-rule="evenodd" d="M36 35.5482C5.286 25.3542 0 38.8842 0 38.8842C15.36 38.8842 30.72 58.5222 30.72 58.5222C51.198 83.9982 66.552 83.9982 66.552 83.9982C71.13 83.9982 75.168 83.0382 78.69 81.7662C76.77 75.8742 84 69.5922 84 63.0282C84 55.3842 99.186 54.2982 102 46.3182C81.558 48.9702 36 35.5482 36 35.5482Z" fill="#46A046"/>
<path fill-rule="evenodd" clip-rule="evenodd" d="M84 66C85.74 63.606 88.944 55.542 88.944 53.016C88.944 47.604 105.024 41.838 108 36.186C77.028 38.322 37.944 31.782 37.944 31.782C0.498001 23.748 0 38.886 0 38.886C17.748 34.5 36.348 44.43 36.348 44.43C72.528 63.576 82.026 66.174 84 66Z" fill="#8CBE3C"/>
<path fill-rule="evenodd" clip-rule="evenodd" d="M198 46.3152C200.814 54.3012 216 55.3872 216 63.0312C216 69.5892 223.23 75.8772 221.31 81.7632C224.832 83.0412 228.87 84.0012 233.448 84.0012C233.448 84.0012 248.802 84.0012 269.28 58.5192C269.28 58.5192 284.64 38.8872 300 38.8872C300 38.8872 294.714 25.3572 264 35.5452C264 35.5452 218.442 48.9732 198 46.3152Z" fill="#46A046"/>
<path fill-rule="evenodd" clip-rule="evenodd" d="M216 66C214.26 63.606 211.056 55.542 211.056 53.016C211.056 47.604 194.976 41.838 192 36.186C222.972 38.322 262.056 31.782 262.056 31.782C299.502 23.748 300 38.886 300 38.886C282.252 34.5 263.652 44.43 263.652 44.43C227.472 63.576 217.974 66.174 216 66Z" fill="#8CBE3C"/>
<path fill-rule="evenodd" clip-rule="evenodd" d="M150 -1.52588e-05C108.36 -1.52588e-05 85.95 52.014 77.064 74.976C75.252 79.662 74.874 84.756 75.846 89.544C76.89 94.722 80.022 99.132 84.144 102L132 132H168L215.994 101.904C219.468 99.492 222.336 96.012 223.602 91.77C225.21 86.358 225.03 80.394 222.936 74.976C214.05 52.014 191.64 -1.52588e-05 150 -1.52588e-05Z" fill="#8CBE3C"/>
<path fill-rule="evenodd" clip-rule="evenodd" d="M156 84H144C142.344 84 141 82.656 141 81C141 79.344 142.344 78 144 78H156C157.656 78 159 79.344 159 81C159 82.656 157.656 84 156 84Z" fill="#46A046"/>
<path opacity="0.5" fill-rule="evenodd" clip-rule="evenodd" d="M147 0.23339V17.9994C147 19.6554 148.344 20.9994 150 20.9994C151.656 20.9994 153 19.6554 153 17.9994V0.23339C151.998 0.17339 151.026 -0.000610352 150 -0.000610352C148.974 -0.000610352 148.002 0.17339 147 0.23339ZM126 23.9994C126 25.6554 127.344 26.9994 129 26.9994C130.656 26.9994 132 25.6554 132 23.9994V3.58739C129.942 4.40339 127.938 5.33339 126 6.39539V23.9994ZM168 3.58739V23.9994C168 25.6554 169.344 26.9994 171 26.9994C172.656 26.9994 174 25.6554 174 23.9994V6.39539C172.062 5.33339 170.058 4.40339 168 3.58739Z" fill="#46A046"/>
<path opacity="0.5" fill-rule="evenodd" clip-rule="evenodd" d="M198 67.5C197.172 67.5 196.5 66.828 196.5 66C196.5 53.592 186.402 43.5 174 43.5C161.598 43.5 151.5 53.592 151.5 66H148.5C148.5 53.592 138.402 43.5 126 43.5C113.598 43.5 103.5 53.592 103.5 66C103.5 66.828 102.828 67.5 102 67.5C101.172 67.5 100.5 66.828 100.5 66C100.5 51.942 111.936 40.5 126 40.5C137.04 40.5 146.454 47.544 150 57.378C153.546 47.544 162.96 40.5 174 40.5C188.064 40.5 199.5 51.942 199.5 66C199.5 66.828 198.828 67.5 198 67.5Z" fill="#46A046"/>
<path fill-rule="evenodd" clip-rule="evenodd" d="M132 72C132 75.312 129.312 78 126 78C122.688 78 120 75.312 120 72C120 68.688 122.688 66 126 66C129.312 66 132 68.688 132 72Z" fill="white"/>
<path fill-rule="evenodd" clip-rule="evenodd" d="M180 72C180 75.312 177.312 78 174 78C170.688 78 168 75.312 168 72C168 68.688 170.688 66 174 66C177.312 66 180 68.688 180 72Z" fill="white"/>
<path fill-rule="evenodd" clip-rule="evenodd" d="M132 108C131.178 108 130.5 107.322 130.5 106.5V97.5C130.5 96.678 131.178 96 132 96C132.822 96 133.5 96.678 133.5 97.5V106.5C133.5 107.322 132.822 108 132 108Z" fill="#46A046"/>
<path fill-rule="evenodd" clip-rule="evenodd" d="M150 111C149.178 111 148.5 110.322 148.5 109.5V100.5C148.5 99.678 149.178 99 150 99C150.822 99 151.5 99.678 151.5 100.5V109.5C151.5 110.322 150.822 111 150 111Z" fill="#46A046"/>
<path fill-rule="evenodd" clip-rule="evenodd" d="M168 111C167.178 111 166.5 110.322 166.5 109.5V100.5C166.5 99.678 167.178 99 168 99C168.822 99 169.5 99.678 169.5 100.5V109.5C169.5 110.322 168.822 111 168 111Z" fill="#46A046"/>
<path fill-rule="evenodd" clip-rule="evenodd" d="M145.242 108L139.242 102H123C121.944 103.92 121.896 106.128 123 108H136.758L142.758 114H177C177 114 176.82 108.312 177 108H145.242Z" fill="#323232"/>
<path fill-rule="evenodd" clip-rule="evenodd" d="M126 105.002C126 106.658 124.656 108.002 123 108.002C121.344 108.002 120 106.658 120 105.002C120 103.346 121.344 102.002 123 102.002C124.656 102.002 126 103.346 126 105.002Z" fill="#323232"/>
<path fill-rule="evenodd" clip-rule="evenodd" d="M180 111.002C180 112.658 178.656 114.002 177 114.002C175.344 114.002 174 112.658 174 111.002C174 109.346 175.344 108.002 177 108.002C178.656 108.002 180 109.346 180 111.002Z" fill="#323232"/>
</g>
<defs>
<clipPath id="clip0">
<rect width="300" height="132" fill="white"/>
</clipPath>
</defs>
</svg>
